<?xml version="1.0" encoding="UTF-8"?>
<svg xmlns="http://www.w3.org/2000/svg" width="1280" height="720" viewBox="0 0 1280 720">
  <rect width="1280" height="720" fill="none"/>
  <path d="M 912.00 350.00 C 913.07 351.73, 916.29 357.09, 918.43 360.36 C 920.57 363.62, 922.71 366.68, 924.86 369.60 C 927.00 372.51, 929.14 375.24, 931.29 377.84 C 933.43 380.44, 935.57 382.87, 937.71 385.19 C 939.86 387.51, 942.00 389.68, 944.14 391.75 C 946.29 393.82, 948.43 395.75, 950.57 397.60 C 952.71 399.44, 954.86 401.17, 957.00 402.81 C 959.14 404.46, 961.29 406.00, 963.43 407.47 C 965.57 408.94, 967.71 410.31, 969.86 411.62 C 972.00 412.93, 974.14 414.16, 976.29 415.32 C 978.43 416.49, 980.57 417.58, 982.71 418.63 C 984.86 419.67, 987.00 420.64, 989.14 421.57 C 991.29 422.50, 993.43 423.37, 995.57 424.20 C 997.71 425.03, 999.86 425.81, 1002.00 426.55 C 1004.14 427.28, 1006.29 427.98, 1008.43 428.64 C 1010.57 429.30, 1012.71 429.91, 1014.86 430.50 C 1017.00 431.09, 1019.14 431.64, 1021.29 432.17 C 1023.43 432.69, 1025.57 433.18, 1027.71 433.65 C 1029.86 434.12, 1032.00 434.56, 1034.14 434.97 C 1036.29 435.39, 1038.43 435.78, 1040.57 436.16 C 1042.71 436.53, 1044.86 436.88, 1047.00 437.21 C 1049.14 437.54, 1051.29 437.85, 1053.43 438.15 C 1055.57 438.44, 1057.71 438.72, 1059.86 438.99 C 1062.00 439.25, 1064.14 439.50, 1066.29 439.73 C 1068.43 439.97, 1070.57 440.19, 1072.71 440.40 C 1074.86 440.61, 1077.00 440.81, 1079.14 441.00 C 1081.29 441.18, 1083.43 441.36, 1085.57 441.53 C 1087.71 441.69, 1090.93 441.92, 1092.00 442.00" fill="none" stroke="#2563EB" stroke-width="4" stroke-linecap="round" stroke-linejoin="round"/>
</svg>