<?xml version="1.0" encoding="UTF-8"?>
<svg xmlns="http://www.w3.org/2000/svg" width="1280" height="720" viewBox="0 0 1280 720">
  <rect width="1280" height="720" fill="none"/>
  <ellipse cx="185.00" cy="334.26" rx="3.20" ry="3.20" fill="#2563EB"/>
  <ellipse cx="194.50" cy="343.50" rx="3.20" ry="3.20" fill="#2563EB"/>
  <ellipse cx="204.00" cy="352.50" rx="3.20" ry="3.20" fill="#2563EB"/>
  <ellipse cx="213.50" cy="361.28" rx="3.20" ry="3.20" fill="#2563EB"/>
  <ellipse cx="223.00" cy="369.83" rx="3.20" ry="3.20" fill="#2563EB"/>
  <ellipse cx="232.50" cy="378.15" rx="3.20" ry="3.20" fill="#2563EB"/>
  <ellipse cx="242.00" cy="386.23" rx="3.20" ry="3.20" fill="#2563EB"/>
  <ellipse cx="251.50" cy="394.10" rx="3.20" ry="3.20" fill="#2563EB"/>
  <ellipse cx="261.00" cy="401.73" rx="3.20" ry="3.20" fill="#2563EB"/>
  <ellipse cx="270.50" cy="409.13" rx="3.20" ry="3.20" fill="#2563EB"/>
  <ellipse cx="280.00" cy="416.30" rx="3.20" ry="3.20" fill="#2563EB"/>
  <ellipse cx="289.50" cy="423.25" rx="3.20" ry="3.20" fill="#2563EB"/>
  <ellipse cx="299.00" cy="429.96" rx="3.20" ry="3.20" fill="#2563EB"/>
  <ellipse cx="308.50" cy="436.45" rx="3.20" ry="3.20" fill="#2563EB"/>
  <ellipse cx="318.00" cy="442.70" rx="3.20" ry="3.20" fill="#2563EB"/>
  <ellipse cx="327.50" cy="448.73" rx="3.20" ry="3.20" fill="#2563EB"/>
  <ellipse cx="337.00" cy="454.53" rx="3.20" ry="3.20" fill="#2563EB"/>
  <ellipse cx="346.50" cy="460.10" rx="3.20" ry="3.20" fill="#2563EB"/>
  <ellipse cx="356.00" cy="465.43" rx="3.20" ry="3.20" fill="#2563EB"/>
  <ellipse cx="365.50" cy="470.55" rx="3.20" ry="3.20" fill="#2563EB"/>
  <ellipse cx="375.00" cy="475.43" rx="3.20" ry="3.20" fill="#2563EB"/>
  <ellipse cx="384.50" cy="480.08" rx="3.20" ry="3.20" fill="#2563EB"/>
  <ellipse cx="394.00" cy="484.50" rx="3.20" ry="3.20" fill="#2563EB"/>
  <ellipse cx="403.50" cy="488.70" rx="3.20" ry="3.20" fill="#2563EB"/>
  <ellipse cx="413.00" cy="492.66" rx="3.20" ry="3.20" fill="#2563EB"/>
  <ellipse cx="422.50" cy="496.40" rx="3.20" ry="3.20" fill="#2563EB"/>
  <ellipse cx="432.00" cy="499.90" rx="3.20" ry="3.20" fill="#2563EB"/>
  <ellipse cx="441.50" cy="503.18" rx="3.20" ry="3.20" fill="#2563EB"/>
  <ellipse cx="451.00" cy="506.23" rx="3.20" ry="3.20" fill="#2563EB"/>
  <ellipse cx="460.50" cy="509.05" rx="3.20" ry="3.20" fill="#2563EB"/>
  <ellipse cx="470.00" cy="511.63" rx="3.20" ry="3.20" fill="#2563EB"/>
  <ellipse cx="479.50" cy="514.00" rx="3.20" ry="3.20" fill="#2563EB"/>
  <ellipse cx="489.00" cy="516.13" rx="3.20" ry="3.20" fill="#2563EB"/>
  <ellipse cx="498.50" cy="518.03" rx="3.20" ry="3.20" fill="#2563EB"/>
  <ellipse cx="508.00" cy="519.70" rx="3.20" ry="3.20" fill="#2563EB"/>
  <ellipse cx="517.50" cy="521.15" rx="3.20" ry="3.20" fill="#2563EB"/>
  <ellipse cx="527.00" cy="522.36" rx="3.20" ry="3.20" fill="#2563EB"/>
  <ellipse cx="536.50" cy="523.35" rx="3.20" ry="3.20" fill="#2563EB"/>
  <ellipse cx="546.00" cy="524.10" rx="3.20" ry="3.20" fill="#2563EB"/>
  <ellipse cx="555.50" cy="524.63" rx="3.20" ry="3.20" fill="#2563EB"/>
  <ellipse cx="565.00" cy="524.93" rx="3.20" ry="3.20" fill="#2563EB"/>
  <ellipse cx="574.50" cy="525.00" rx="3.20" ry="3.20" fill="#2563EB"/>
  <ellipse cx="584.00" cy="524.83" rx="3.20" ry="3.20" fill="#2563EB"/>
  <ellipse cx="593.50" cy="524.45" rx="3.20" ry="3.20" fill="#2563EB"/>
  <ellipse cx="603.00" cy="523.83" rx="3.20" ry="3.20" fill="#2563EB"/>
  <ellipse cx="612.50" cy="522.98" rx="3.20" ry="3.20" fill="#2563EB"/>
  <ellipse cx="622.00" cy="521.90" rx="3.20" ry="3.20" fill="#2563EB"/>
  <ellipse cx="631.50" cy="520.60" rx="3.20" ry="3.20" fill="#2563EB"/>
  <ellipse cx="641.00" cy="519.06" rx="3.20" ry="3.20" fill="#2563EB"/>
  <ellipse cx="650.50" cy="517.30" rx="3.20" ry="3.20" fill="#2563EB"/>
  <ellipse cx="660.00" cy="515.30" rx="3.20" ry="3.20" fill="#2563EB"/>
  <ellipse cx="669.50" cy="513.08" rx="3.20" ry="3.20" fill="#2563EB"/>
  <ellipse cx="679.00" cy="510.63" rx="3.20" ry="3.20" fill="#2563EB"/>
  <ellipse cx="688.50" cy="507.95" rx="3.20" ry="3.20" fill="#2563EB"/>
  <ellipse cx="698.00" cy="505.03" rx="3.20" ry="3.20" fill="#2563EB"/>
  <ellipse cx="707.50" cy="501.90" rx="3.20" ry="3.20" fill="#2563EB"/>
  <ellipse cx="717.00" cy="498.53" rx="3.20" ry="3.20" fill="#2563EB"/>
  <ellipse cx="726.50" cy="494.93" rx="3.20" ry="3.20" fill="#2563EB"/>
  <ellipse cx="736.00" cy="491.10" rx="3.20" ry="3.20" fill="#2563EB"/>
  <ellipse cx="745.50" cy="487.05" rx="3.20" ry="3.20" fill="#2563EB"/>
  <ellipse cx="755.00" cy="482.76" rx="3.20" ry="3.20" fill="#2563EB"/>
  <ellipse cx="764.50" cy="478.25" rx="3.20" ry="3.20" fill="#2563EB"/>
  <ellipse cx="774.00" cy="473.50" rx="3.20" ry="3.20" fill="#2563EB"/>
  <ellipse cx="783.50" cy="468.53" rx="3.20" ry="3.20" fill="#2563EB"/>
  <ellipse cx="793.00" cy="463.33" rx="3.20" ry="3.20" fill="#2563EB"/>
  <ellipse cx="802.50" cy="457.90" rx="3.20" ry="3.20" fill="#2563EB"/>
  <ellipse cx="812.00" cy="452.23" rx="3.20" ry="3.20" fill="#2563EB"/>
  <ellipse cx="821.50" cy="446.35" rx="3.20" ry="3.20" fill="#2563EB"/>
  <ellipse cx="831.00" cy="440.23" rx="3.20" ry="3.20" fill="#2563EB"/>
  <ellipse cx="840.50" cy="433.88" rx="3.20" ry="3.20" fill="#2563EB"/>
  <ellipse cx="850.00" cy="427.30" rx="3.20" ry="3.20" fill="#2563EB"/>
  <ellipse cx="859.50" cy="420.50" rx="3.20" ry="3.20" fill="#2563EB"/>
  <ellipse cx="869.00" cy="413.46" rx="3.20" ry="3.20" fill="#2563EB"/>
  <ellipse cx="878.50" cy="406.20" rx="3.20" ry="3.20" fill="#2563EB"/>
  <ellipse cx="888.00" cy="398.70" rx="3.20" ry="3.20" fill="#2563EB"/>
  <ellipse cx="897.50" cy="390.98" rx="3.20" ry="3.20" fill="#2563EB"/>
  <ellipse cx="907.00" cy="383.03" rx="3.20" ry="3.20" fill="#2563EB"/>
  <ellipse cx="916.50" cy="374.85" rx="3.20" ry="3.20" fill="#2563EB"/>
  <ellipse cx="926.00" cy="366.43" rx="3.20" ry="3.20" fill="#2563EB"/>
  <ellipse cx="935.50" cy="357.80" rx="3.20" ry="3.20" fill="#2563EB"/>
  <ellipse cx="945.00" cy="348.93" rx="3.20" ry="3.20" fill="#2563EB"/>
  <ellipse cx="793.00" cy="463.33" rx="4.10" ry="4.10" fill="#EF4444"/>
  <ellipse cx="767.35" cy="476.85" rx="4.10" ry="4.10" fill="#EF4444"/>
  <ellipse cx="741.70" cy="488.70" rx="4.10" ry="4.10" fill="#EF4444"/>
  <ellipse cx="716.05" cy="498.87" rx="4.10" ry="4.10" fill="#EF4444"/>
  <ellipse cx="690.40" cy="507.38" rx="4.10" ry="4.10" fill="#EF4444"/>
  <ellipse cx="664.75" cy="514.22" rx="4.10" ry="4.10" fill="#EF4444"/>
  <ellipse cx="639.10" cy="519.39" rx="4.10" ry="4.10" fill="#EF4444"/>
  <ellipse cx="613.45" cy="522.88" rx="4.10" ry="4.10" fill="#EF4444"/>
  <ellipse cx="587.80" cy="524.71" rx="4.10" ry="4.10" fill="#EF4444"/>
  <ellipse cx="562.15" cy="524.86" rx="4.10" ry="4.10" fill="#EF4444"/>
  <ellipse cx="536.50" cy="523.35" rx="4.10" ry="4.10" fill="#EF4444"/>
  <ellipse cx="510.85" cy="520.16" rx="4.10" ry="4.10" fill="#EF4444"/>
  <ellipse cx="485.20" cy="515.30" rx="4.10" ry="4.10" fill="#EF4444"/>
  <ellipse cx="459.55" cy="508.77" rx="4.10" ry="4.10" fill="#EF4444"/>
  <ellipse cx="433.90" cy="500.58" rx="4.10" ry="4.10" fill="#EF4444"/>
  <ellipse cx="408.25" cy="490.71" rx="4.10" ry="4.10" fill="#EF4444"/>
  <ellipse cx="382.60" cy="479.17" rx="4.10" ry="4.10" fill="#EF4444"/>
  <ellipse cx="793.00" cy="463.33" rx="4.10" ry="4.10" fill="#10B981"/>
  <ellipse cx="782.08" cy="469.29" rx="4.10" ry="4.10" fill="#10B981"/>
  <ellipse cx="771.15" cy="474.95" rx="4.10" ry="4.10" fill="#10B981"/>
  <ellipse cx="760.23" cy="480.31" rx="4.10" ry="4.10" fill="#10B981"/>
  <ellipse cx="749.30" cy="485.36" rx="4.10" ry="4.10" fill="#10B981"/>
  <ellipse cx="738.37" cy="490.11" rx="4.10" ry="4.10" fill="#10B981"/>
  <ellipse cx="727.45" cy="494.56" rx="4.10" ry="4.10" fill="#10B981"/>
  <ellipse cx="716.52" cy="498.70" rx="4.10" ry="4.10" fill="#10B981"/>
  <ellipse cx="705.60" cy="502.54" rx="4.10" ry="4.10" fill="#10B981"/>
  <ellipse cx="694.68" cy="506.08" rx="4.10" ry="4.10" fill="#10B981"/>
  <ellipse cx="683.75" cy="509.31" rx="4.10" ry="4.10" fill="#10B981"/>
  <ellipse cx="672.83" cy="512.25" rx="4.10" ry="4.10" fill="#10B981"/>
  <ellipse cx="661.90" cy="514.88" rx="4.10" ry="4.10" fill="#10B981"/>
  <ellipse cx="650.97" cy="517.20" rx="4.10" ry="4.10" fill="#10B981"/>
  <ellipse cx="640.05" cy="519.22" rx="4.10" ry="4.10" fill="#10B981"/>
  <ellipse cx="629.12" cy="520.94" rx="4.10" ry="4.10" fill="#10B981"/>
  <ellipse cx="618.20" cy="522.36" rx="4.10" ry="4.10" fill="#10B981"/>
</svg>